<svg width="36" height="32" viewBox="0 0 36 32" fill="none" xmlns="http://www.w3.org/2000/svg">
<path d="M13.968 0.0239944L8.336 23.704L7.312 18.2C9.36 18.2 11.024 18.84 12.304 20.12C13.584 21.3147 14.224 22.936 14.224 24.984C14.224 27.032 13.584 28.696 12.304 29.976C11.024 31.256 9.44533 31.896 7.568 31.896C5.52 31.896 3.856 31.256 2.576 29.976C1.38133 28.6107 0.784 26.9467 0.784 24.984C0.784 24.216 0.826667 23.5333 0.912 22.936C0.997334 22.3387 1.168 21.6133 1.424 20.76C1.68 19.9067 2.02133 18.8827 2.448 17.688L7.824 0.0239944H13.968ZM35.728 0.0239944L30.096 23.704L29.072 18.2C31.12 18.2 32.784 18.84 34.064 20.12C35.344 21.3147 35.984 22.936 35.984 24.984C35.984 27.032 35.344 28.696 34.064 29.976C32.784 31.256 31.2053 31.896 29.328 31.896C27.28 31.896 25.616 31.256 24.336 29.976C23.1413 28.6107 22.544 26.9467 22.544 24.984C22.544 24.216 22.5867 23.5333 22.672 22.936C22.7573 22.3387 22.928 21.6133 23.184 20.76C23.44 19.9067 23.7813 18.8827 24.208 17.688L29.584 0.0239944H35.728Z" fill="#3A9BDC"/>
</svg>
