<svg width="1920" height="251" viewBox="0 0 1920 251" fill="none" xmlns="http://www.w3.org/2000/svg">
<path d="M-1.99902 8.99988C42.6676 128.333 188.001 318.6 412.001 125C692.001 -117 911.501 165.5 926.001 174C1021.6 331.2 1173.17 206.833 1237 125" stroke="#3A9BDC" stroke-width="2"/>
<path d="M2476 241.48C2431.33 122.147 2286 -68.1199 2062 125.48C1782 367.48 1562.5 84.9801 1548 76.4801C1452.4 -80.7199 1300.83 43.6468 1237 125.48" stroke="#3A9BDC" stroke-width="2"/>
<path d="M37.1777 55.0196L56.2806 41.7268L57.8903 44.04L40.8395 55.9049L47.0186 64.7848L44.9665 66.2127L37.1777 55.0196ZM51.1327 75.7107C50.1721 74.3302 49.6482 72.9274 49.5609 71.5021C49.4842 70.0788 49.8079 68.7137 50.5321 67.4068C51.2669 66.1018 52.368 64.9387 53.8356 63.9175C55.3031 62.8963 56.7826 62.2637 58.274 62.0196C59.776 61.7774 61.1764 61.9197 62.4751 62.4465C63.7844 62.9752 64.8891 63.8862 65.7892 65.1797C66.3084 65.9259 66.6968 66.7493 66.9543 67.6499C67.2119 68.5505 67.2685 69.4941 67.1243 70.4805C66.9862 71.4626 66.5835 72.4489 65.916 73.4394C65.2486 74.4299 64.2464 75.3903 62.9094 76.3207L61.9767 76.9697L54.2917 65.9259L56.1945 64.6018L62.3217 73.407C63.1301 72.8445 63.7389 72.1809 64.1482 71.4162C64.5618 70.6577 64.7465 69.8554 64.7023 69.0093C64.6624 68.1695 64.3656 67.3516 63.8117 66.5557C63.2016 65.6789 62.456 65.0717 61.5751 64.7341C60.7046 64.3984 59.8053 64.2997 58.8771 64.438C57.9488 64.5763 57.0898 64.9202 56.3001 65.4697L55.0316 66.3525C53.9496 67.1054 53.1622 67.9302 52.6694 68.8269C52.1871 69.7254 51.9838 70.6468 52.0593 71.591C52.1411 72.5309 52.4914 73.4454 53.1102 74.3347C53.5126 74.913 53.9569 75.3791 54.4431 75.7329C54.9399 76.0887 55.4721 76.3229 56.0396 76.4356C56.6134 76.5439 57.2139 76.5183 57.8412 76.3587L58.7241 78.9008C57.847 79.1789 56.951 79.244 56.0359 79.0962C55.1271 78.9441 54.2499 78.5854 53.4043 78.0202C52.565 77.4506 51.8078 76.6808 51.1327 75.7107ZM68.0399 80.9879L59.4212 86.9852L57.8894 84.7839L72.2166 74.8143L73.6965 76.9409L71.4578 78.4987L71.5877 78.6853C72.5489 78.5148 73.4882 78.6179 74.4057 78.9947C75.3294 79.3672 76.1677 80.0944 76.9206 81.1764C77.5957 82.1465 77.9873 83.1338 78.0956 84.1383C78.2101 85.1384 78.0069 86.1197 77.486 87.0821C76.9713 88.0402 76.1046 88.9432 74.8858 89.7914L65.7821 96.1262L64.2503 93.9249L73.2047 87.6939C74.3303 86.9107 75.0037 86.0083 75.225 84.9867C75.4525 83.9609 75.2115 82.938 74.5018 81.9182C74.0129 81.2155 73.4235 80.6935 72.7337 80.3521C72.0482 80.0169 71.3028 79.8941 70.4976 79.9837C69.6924 80.0733 68.8732 80.408 68.0399 80.9879ZM72.4627 106.363C71.5021 104.983 70.9781 103.58 70.8909 102.155C70.8141 100.732 71.1379 99.3664 71.8621 98.0595C72.5968 96.7545 73.698 95.5914 75.1655 94.5702C76.633 93.549 78.1125 92.9164 79.604 92.6723C81.1059 92.4301 82.5063 92.5724 83.8051 93.0992C85.1144 93.6279 86.219 94.539 87.1191 95.8324C87.6383 96.5786 88.0267 97.402 88.2843 98.3026C88.5418 99.2033 88.5984 100.147 88.4542 101.133C88.3162 102.115 87.9134 103.102 87.246 104.092C86.5785 105.083 85.5763 106.043 84.2393 106.973L83.3066 107.622L75.6216 96.5786L77.5245 95.2545L83.6517 104.06C84.46 103.497 85.0689 102.834 85.4781 102.069C85.8917 101.31 86.0764 100.508 86.0322 99.6621C85.9924 98.8222 85.6955 98.0044 85.1416 97.2084C84.5315 96.3316 83.786 95.7244 82.905 95.3868C82.0346 95.0511 81.1352 94.9524 80.207 95.0907C79.2788 95.229 78.4198 95.5729 77.63 96.1225L76.3615 97.0052C75.2795 97.7581 74.4921 98.5829 73.9993 99.4796C73.517 100.378 73.3137 101.3 73.3893 102.244C73.4711 103.184 73.8213 104.098 74.4401 104.987C74.8425 105.566 75.2869 106.032 75.7731 106.386C76.2698 106.741 76.802 106.976 77.3696 107.088C77.9433 107.197 78.5439 107.171 79.1712 107.011L80.0541 109.554C79.1769 109.832 78.2809 109.897 77.3659 109.749C76.4571 109.597 75.5799 109.238 74.7343 108.673C73.8949 108.103 73.1377 107.333 72.4627 106.363ZM94.4211 106.724L90.952 114.233L99.1983 113.589L100.964 116.126L90.5808 116.484L86.6366 126.096L84.8711 123.559L88.0418 116.258L80.094 116.694L78.3285 114.156L88.6595 113.723L92.6557 104.187L94.4211 106.724Z" fill="#3A9BDC" fill-opacity="0.45"/>
</svg>
